<svg width="520" height="104" viewBox="0 0 520 104" fill="none" xmlns="http://www.w3.org/2000/svg" role="img" aria-labelledby="title desc">
  <title id="title">Omar Khair logo</title>
  <desc id="desc">Horizontal OK mark with Omar Khair wordmark and Websites and Digital Systems descriptor.</desc>
  <rect x="0" y="4" width="96" height="96" rx="20" fill="#111111"/>
  <path d="M23 32H34C45 32 52 39 52 52C52 65 45 72 34 72H23V32ZM33 63C39 63 42 59 42 52C42 45 39 41 33 41H32V63H33Z" fill="#F5F5F4"/>
  <path d="M58 32V49L73 32H85L69 50L86 72H74L62 56L58 60V72H48V32H58Z" fill="#F5F5F4"/>
  <text x="122" y="49" fill="#111111" font-size="36" font-family="Inter, ui-sans-serif, system-ui, -apple-system, Segoe UI, Roboto, Helvetica, Arial, sans-serif" font-weight="650" letter-spacing="-0.02em">Omar Khair</text>
  <text x="124" y="75" fill="#57534E" font-size="16" font-family="Inter, ui-sans-serif, system-ui, -apple-system, Segoe UI, Roboto, Helvetica, Arial, sans-serif" font-weight="500" letter-spacing="0.12em">WEBSITES &amp; DIGITAL SYSTEMS</text>
</svg>
